# xmcd CD database file
#
# Track frame offsets:
#	150
#	14181
#	27269
#	41822
#	56396
#	70330
#	85135
#	96128
#	110857
#	125799
#	138271
#	153738
#	167538
#	181503
#
# Disc length: 2610 seconds
#
# Revision: 0
# Processed by: cddbd v1.5.2PL0 Copyright (c) Steve Scherf et al.
# Submitted via: CDex 1.51
#
DISCID=c10a300e
DTITLE=Ella Fitzgerald - Ella Fitzgerald
DYEAR=2007
DGENRE=Jazz
TTITLE0=Dream a Little Dream of Me
TTITLE1=I'm Gonna Wash That Man Right Out of My Hair
TTITLE2=How Long Had this Been Going On?
TTITLE3=I'v Got a Crush on You
TTITLE4=Smooth Sailing
TTITLE5=Mixed Emotions
TTITLE6=Happy Talk
TTITLE7=I've Got the World on a String
TTITLE8=Don'cha Go Way Mad
TTITLE9=Soon
TTITLE10=Maybe
TTITLE11=Black Coffee
TTITLE12=Lover's Gold
TTITLE13=Crying
EXTD=YEAR: 2007
EXTT0=
EXTT1=
EXTT2=
EXTT3=
EXTT4=
EXTT5=
EXTT6=
EXTT7=
EXTT8=
EXTT9=
EXTT10=
EXTT11=
EXTT12=
EXTT13=
PLAYORDER=
